<svg width="332" height="85" viewBox="0 0 332 85" fill="none" xmlns="http://www.w3.org/2000/svg">
<path d="M45.32 1.67999C57.92 1.67999 68.24 12 68.24 24.6C68.24 37.32 57.92 47.64 45.32 47.64H31.04V83.04H40.64V84H0.2V83.04H9.8V2.64H0.2V1.67999H45.32ZM10.76 2.64V83.04H30.08V2.64H10.76ZM31.04 46.68H45.32C57.44 46.68 67.28 36.72 67.28 24.6C67.28 12.48 57.44 2.64 45.32 2.64H31.04V46.68ZM122.119 0.959996C145.279 0.959996 163.999 17.28 163.999 42.84C163.999 68.4 145.279 84.72 122.119 84.72C98.9591 84.72 80.2391 68.4 80.2391 42.84C80.2391 17.28 98.9591 0.959996 122.119 0.959996ZM101.479 24.48V61.2C101.479 74.04 109.039 83.76 122.119 83.76C135.199 83.76 142.759 74.04 142.759 61.2V24.48C142.759 11.64 135.199 1.92 122.119 1.92C109.039 1.92 101.479 11.64 101.479 24.48ZM131.479 82.8C149.599 79.08 163.039 64.32 163.039 42.84C163.039 21.36 149.599 6.6 131.479 2.87999C138.799 6.11999 143.719 13.68 143.719 24.48V61.2C143.719 72 138.799 79.56 131.479 82.8ZM81.1991 42.84C81.1991 64.32 94.6391 79.08 112.759 82.8C105.319 79.44 100.519 72 100.519 61.2V24.48C100.519 13.68 105.319 6.24 112.759 2.87999C94.6391 6.6 81.1991 21.36 81.1991 42.84ZM223.678 47.64L243.478 83.04H253.198V84H230.518V83.04H242.398L222.598 47.64H204.478V83.04H214.078V84H173.638V83.04H183.238V2.64H173.638V1.67999H223.558C236.158 1.67999 246.478 12 246.478 24.6C246.478 37.32 236.158 47.64 223.678 47.64ZM184.198 2.64V83.04H203.518V2.64H184.198ZM223.558 2.64H204.478V46.68H223.558C235.678 46.68 245.518 36.72 245.518 24.6C245.518 12.48 235.678 2.64 223.558 2.64ZM331.544 1.67999V15.84H330.584V2.64H305.984V83.04H315.584V84H275.144V83.04H284.744V2.64H260.144V15.84H259.184V1.67999H331.544ZM285.704 83.04H305.024V2.64H285.704V83.04Z" fill="black"/>
</svg>
